<?xml version="1.0" standalone="no"?><!DOCTYPE svg PUBLIC "-//W3C//DTD SVG 1.1//EN" "http://www.w3.org/Graphics/SVG/1.1/DTD/svg11.dtd"><svg t="1783598951476" class="icon" viewBox="0 0 1024 1024" version="1.1" xmlns="http://www.w3.org/2000/svg" p-id="11416" xmlns:xlink="http://www.w3.org/1999/xlink" width="200" height="200"><path d="M512 49.548387c255.405419 0 462.451613 207.046194 462.451613 462.451613S767.405419 974.451613 512 974.451613 49.548387 767.405419 49.548387 512 256.594581 49.548387 512 49.548387z m0 66.064516C293.07871 115.612903 115.612903 293.07871 115.612903 512s177.465806 396.387097 396.387097 396.387097 396.387097-177.465806 396.387097-396.387097S730.92129 115.612903 512 115.612903zM332.122839 330.322581a33.032258 33.032258 0 0 1 32.090838 25.236645l54.618839 224.916645 57.575226-225.296516A33.032258 33.032258 0 0 1 508.416 330.322581h17.061161a33.032258 33.032258 0 0 1 32.008258 24.856774l57.575226 225.296516 54.618839-224.916645A33.032258 33.032258 0 0 1 701.786839 330.322581h12.684387a29.217032 29.217032 0 0 1 28.110451 37.194322l-85.80129 302.146065A33.032258 33.032258 0 0 1 625.003355 693.677419h-19.059613a33.032258 33.032258 0 0 1-32.008258-24.87329L517.169548 445.935484 459.974194 668.853677A33.032258 33.032258 0 0 1 427.982452 693.677419h-19.555097a33.032258 33.032258 0 0 1-31.777032-24.047484l-85.371871-302.113032A29.233548 29.233548 0 0 1 319.438452 330.322581h12.684387z" fill="#111111" p-id="11417"></path></svg>