<?xml version="1.0" standalone="no"?><!DOCTYPE svg PUBLIC "-//W3C//DTD SVG 1.1//EN" "http://www.w3.org/Graphics/SVG/1.1/DTD/svg11.dtd"><svg t="1783598897112" class="icon" viewBox="0 0 1024 1024" version="1.1" xmlns="http://www.w3.org/2000/svg" p-id="8193" xmlns:xlink="http://www.w3.org/1999/xlink" width="200" height="200"><path d="M967.111111 967.111111a28.444444 28.444444 0 1 1 0 56.888889H56.888889a28.444444 28.444444 0 1 1 0-56.888889h910.222222zM512 227.555556c157.098667 0 284.444444 127.345778 284.444444 284.444444v341.333333a56.888889 56.888889 0 0 1-56.888888 56.888889H284.444444a56.888889 56.888889 0 0 1-56.888888-56.888889V512c0-157.098667 127.345778-284.444444 284.444444-284.444444z m0 56.888888a227.555556 227.555556 0 0 0-227.441778 220.444445L284.444444 512v312.888889a28.444444 28.444444 0 0 0 28.444445 28.444444h398.222222a28.444444 28.444444 0 0 0 28.444445-28.444444V512a227.555556 227.555556 0 0 0-227.555556-227.555556z m9.841778 142.222223c58.225778 11.576889 103.936 122.709333 103.936 184.433777 0 65.166222-50.915556 117.987556-113.777778 117.987556s-113.777778-52.821333-113.777778-117.987556c0-33.024 13.084444-80.213333 34.161778-118.698666l3.811556-6.712889-0.028445-1.024 0.085333 3.896889C437.76 538.168889 458.382222 577.422222 483.555556 577.422222c26.168889 0 47.416889-42.439111 47.416888-94.805333a167.822222 167.822222 0 0 0-8.106666-53.020445L521.841778 426.666667z m393.102222-192a28.444444 28.444444 0 0 1-10.439111 38.855111l-73.898667 42.666666a28.444444 28.444444 0 1 1-28.444444-49.265777l73.898666-42.666667a28.444444 28.444444 0 0 1 38.855112 10.410667z m-769.991111-11.918223l2.986667 1.507556 73.898666 42.666667a28.444444 28.444444 0 0 1-25.486222 50.773333l-2.958222-1.507556-73.898667-42.666666a28.444444 28.444444 0 0 1 25.486222-50.773334z m616.448-145.038222a28.444444 28.444444 0 0 1 0 40.220445l-60.359111 60.359111a28.444444 28.444444 0 0 1-40.220445-40.220445l60.359111-60.359111a28.444444 28.444444 0 0 1 40.220445 0zM300.145778 75.377778l2.673778 2.360889 60.359111 60.359111a28.444444 28.444444 0 0 1-37.546667 42.581333l-2.673778-2.360889-60.359111-60.359111a28.444444 28.444444 0 0 1 37.546667-42.581333zM512 0a28.444444 28.444444 0 0 1 28.444444 28.444444v85.333334a28.444444 28.444444 0 1 1-56.888888 0V28.444444a28.444444 28.444444 0 0 1 28.444444-28.444444z" fill="#202020" p-id="8194"></path></svg>